<svg width="2372" height="400" viewBox="0 0 2372 400" fill="none" xmlns="http://www.w3.org/2000/svg">
<path fill-rule="evenodd" clip-rule="evenodd" d="M294.422 0.0078287L294.468 0.00836861C352.88 0.748524 400 48.3262 400 106.911V293.131L399.992 294.422L399.992 294.468C399.252 352.88 351.674 400 293.089 400H106.911C47.8656 400 0 352.134 0 293.089V106.911C0 47.8656 47.8656 0 106.911 0H293.131L294.422 0.0078287Z" fill="black"/>
<path d="M240.714 61.6725C236.254 57.2126 228.917 57.2126 224.457 61.6725L200 86.0578L175.615 61.6725C171.155 57.2126 163.818 57.2126 159.358 61.6725C154.898 66.1323 154.898 73.4695 159.358 77.9294L183.743 102.315L151.157 134.9L110.443 94.1863C105.983 89.7264 98.6461 89.7264 94.1863 94.1863C89.7264 98.6461 89.7264 105.983 94.1863 110.443L134.9 151.157L102.315 183.743L77.9294 159.358C73.4695 154.898 66.1323 154.898 61.6725 159.358C57.2126 163.818 57.2126 171.155 61.6725 175.615L86.0578 200L61.6725 224.385C57.2126 228.845 57.2126 236.182 61.6725 240.642C66.1323 245.102 73.4695 245.102 77.9294 240.642L102.315 216.257L134.9 248.843L94.1863 289.557C89.7264 294.017 89.7264 301.354 94.1863 305.814C98.6461 310.274 105.983 310.274 110.443 305.814L151.157 265.1L183.743 297.685L159.358 322.071C154.898 326.531 154.898 333.868 159.358 338.328C163.818 342.787 171.155 342.787 175.615 338.328L200 313.942L224.385 338.328C228.845 342.787 236.182 342.787 240.642 338.328C245.102 333.868 245.102 326.531 240.642 322.071L216.257 297.685L248.843 265.1L289.557 305.814C294.017 310.274 301.354 310.274 305.814 305.814C310.274 301.354 310.274 294.017 305.814 289.557L265.1 248.843L297.685 216.257L322.071 240.642C326.531 245.102 333.868 245.102 338.328 240.642C342.787 236.182 342.787 228.845 338.328 224.385L313.942 200L338.328 175.615C342.787 171.155 342.787 163.818 338.328 159.358C333.868 154.898 326.531 154.898 322.071 159.358L297.685 183.743L265.1 151.157L305.814 110.443C310.274 105.983 310.274 98.6461 305.814 94.1863C301.354 89.7264 294.017 89.7264 289.557 94.1863L248.843 134.9L216.257 102.315L240.642 77.9294C245.102 73.4695 245.102 66.1323 240.642 61.6725H240.714ZM118.644 200L151.229 167.414L183.815 200L151.229 232.586L118.644 200ZM167.486 248.843L200.072 216.257L232.658 248.843L200.072 281.428L167.486 248.843ZM216.257 200L248.843 167.414L281.428 200L248.843 232.586L216.257 200ZM232.514 151.157L199.928 183.743L167.342 151.157L199.928 118.572L232.514 151.157Z" fill="white"/>
<path d="M584 335.043V60H682.038C703.436 60 721.163 63.8946 735.22 71.6839C749.276 79.4732 759.796 90.1275 766.78 103.647C773.763 117.077 777.255 132.208 777.255 149.04C777.255 165.961 773.719 181.182 766.645 194.701C759.662 208.131 749.097 218.785 734.951 226.664C720.895 234.453 703.212 238.348 681.903 238.348H614.486V203.162H678.143C691.662 203.162 702.63 200.834 711.046 196.178C719.462 191.433 725.64 184.987 729.579 176.839C733.519 168.692 735.488 159.425 735.488 149.04C735.488 138.654 733.519 129.432 729.579 121.374C725.64 113.316 719.417 107.004 710.912 102.438C702.496 97.8721 691.394 95.589 677.606 95.589H625.498V335.043H584Z" fill="black"/>
<path d="M942.008 249.495V128.761H982.297V335.043H942.814V299.319H940.665C935.92 310.332 928.31 319.509 917.834 326.85C907.449 334.103 894.511 337.729 879.022 337.729C865.771 337.729 854.043 334.819 843.836 328.999C833.719 323.09 825.751 314.361 819.931 302.811C814.201 291.261 811.336 276.981 811.336 259.97V128.761H851.491V255.135C851.491 269.192 855.386 280.383 863.175 288.71C870.964 297.036 881.081 301.199 893.526 301.199C901.047 301.199 908.523 299.319 915.954 295.559C923.475 291.799 929.697 286.113 934.622 278.503C939.635 270.893 942.098 261.223 942.008 249.495Z" fill="black"/>
<path d="M1065.06 212.563V335.043H1024.91V128.761H1063.45V162.335H1066C1070.75 151.412 1078.18 142.638 1088.29 136.013C1098.5 129.387 1111.35 126.075 1126.84 126.075C1140.9 126.075 1153.21 129.029 1163.77 134.938C1174.34 140.758 1182.53 149.443 1188.35 160.992C1194.17 172.542 1197.08 186.822 1197.08 203.833V335.043H1156.92V208.668C1156.92 193.716 1153.03 182.032 1145.24 173.616C1137.45 165.111 1126.75 160.858 1113.14 160.858C1103.83 160.858 1095.55 162.872 1088.29 166.901C1081.13 170.93 1075.45 176.839 1071.24 184.629C1067.12 192.328 1065.06 201.64 1065.06 212.563Z" fill="black"/>
<path d="M1326.48 339.206C1306.51 339.206 1289.32 334.684 1274.9 325.642C1260.58 316.509 1249.57 303.93 1241.87 287.904C1234.17 271.878 1230.32 253.524 1230.32 232.842C1230.32 211.891 1234.26 193.403 1242.14 177.377C1250.01 161.261 1261.12 148.682 1275.44 139.639C1289.77 130.596 1306.64 126.075 1326.07 126.075C1341.74 126.075 1355.71 128.985 1367.97 134.804C1380.24 140.534 1390.13 148.592 1397.65 158.978C1405.26 169.363 1409.78 181.495 1411.22 195.373H1372.14C1369.99 185.703 1365.06 177.377 1357.36 170.393C1349.75 163.41 1339.55 159.918 1326.74 159.918C1315.55 159.918 1305.75 162.872 1297.33 168.782C1289.01 174.601 1282.52 182.928 1277.86 193.761C1273.2 204.505 1270.88 217.218 1270.88 231.902C1270.88 246.943 1273.16 259.925 1277.73 270.848C1282.29 281.771 1288.74 290.232 1297.06 296.23C1305.48 302.229 1315.37 305.228 1326.74 305.228C1334.35 305.228 1341.25 303.841 1347.43 301.065C1353.69 298.2 1358.93 294.126 1363.14 288.844C1367.44 283.562 1370.44 277.205 1372.14 269.774H1411.22C1409.78 283.114 1405.44 295.022 1398.19 305.497C1390.94 315.972 1381.22 324.209 1369.05 330.208C1356.96 336.207 1342.77 339.206 1326.48 339.206Z" fill="black"/>
<path d="M1482.97 212.563V335.043H1442.81V60H1482.43V162.335H1484.98C1489.82 151.233 1497.2 142.414 1507.14 135.878C1517.08 129.343 1530.06 126.075 1546.09 126.075C1560.24 126.075 1572.59 128.985 1583.16 134.804C1593.81 140.624 1602.05 149.308 1607.87 160.858C1613.78 172.318 1616.73 186.643 1616.73 203.833V335.043H1576.57V208.668C1576.57 193.537 1572.68 181.808 1564.89 173.482C1557.1 165.066 1546.27 160.858 1532.39 160.858C1522.9 160.858 1514.39 162.872 1506.87 166.901C1499.44 170.93 1493.58 176.839 1489.28 184.629C1485.07 192.328 1482.97 201.64 1482.97 212.563Z" fill="black"/>
<path d="M1745.86 339.206C1725.89 339.206 1708.7 334.684 1694.29 325.642C1679.96 316.509 1668.95 303.93 1661.25 287.904C1653.55 271.878 1649.7 253.524 1649.7 232.842C1649.7 211.891 1653.64 193.403 1661.52 177.377C1669.4 161.261 1680.5 148.682 1694.83 139.639C1709.15 130.596 1726.03 126.075 1745.46 126.075C1761.13 126.075 1775.09 128.985 1787.36 134.804C1799.62 140.534 1809.52 148.592 1817.04 158.978C1824.65 169.363 1829.17 181.495 1830.6 195.373H1791.52C1789.37 185.703 1784.45 177.377 1776.75 170.393C1769.14 163.41 1758.93 159.918 1746.13 159.918C1734.94 159.918 1725.13 162.872 1716.72 168.782C1708.39 174.601 1701.9 182.928 1697.24 193.761C1692.59 204.505 1690.26 217.218 1690.26 231.902C1690.26 246.943 1692.54 259.925 1697.11 270.848C1701.68 281.771 1708.12 290.232 1716.45 296.23C1724.87 302.229 1734.76 305.228 1746.13 305.228C1753.74 305.228 1760.63 303.841 1766.81 301.065C1773.08 298.2 1778.32 294.126 1782.52 288.844C1786.82 283.562 1789.82 277.205 1791.52 269.774H1830.6C1829.17 283.114 1824.83 295.022 1817.58 305.497C1810.32 315.972 1800.61 324.209 1788.43 330.208C1776.35 336.207 1762.16 339.206 1745.86 339.206Z" fill="black"/>
<path d="M1922.23 339.609C1909.16 339.609 1897.34 337.191 1886.78 332.357C1876.21 327.432 1867.84 320.315 1861.66 311.003C1855.57 301.692 1852.53 290.277 1852.53 276.757C1852.53 265.118 1854.77 255.538 1859.24 248.017C1863.72 240.497 1869.76 234.543 1877.37 230.156C1884.98 225.769 1893.49 222.456 1902.89 220.218C1912.29 217.979 1921.87 216.278 1931.63 215.114C1943.99 213.682 1954.01 212.518 1961.71 211.623C1969.41 210.638 1975.01 209.071 1978.5 206.922C1981.99 204.773 1983.74 201.282 1983.74 196.447V195.507C1983.74 183.778 1980.43 174.691 1973.8 168.244C1967.26 161.798 1957.51 158.575 1944.52 158.575C1931 158.575 1920.35 161.574 1912.56 167.573C1904.86 173.482 1899.53 180.063 1896.58 187.315L1858.84 178.72C1863.32 166.185 1869.85 156.068 1878.45 148.368C1887.13 140.579 1897.12 134.938 1908.4 131.447C1919.68 127.865 1931.54 126.075 1943.99 126.075C1952.22 126.075 1960.95 127.06 1970.17 129.029C1979.49 130.909 1988.17 134.401 1996.23 139.505C2004.38 144.608 2011.05 151.905 2016.24 161.395C2021.43 170.796 2024.03 183.017 2024.03 198.059V335.043H1984.81V306.84H1983.2C1980.6 312.033 1976.71 317.136 1971.52 322.15C1966.32 327.164 1959.65 331.327 1951.51 334.64C1943.36 337.952 1933.6 339.609 1922.23 339.609ZM1930.96 307.377C1942.06 307.377 1951.55 305.184 1959.43 300.797C1967.4 296.41 1973.44 290.679 1977.56 283.606C1981.77 276.444 1983.87 268.789 1983.87 260.641V234.05C1982.44 235.483 1979.66 236.826 1975.55 238.079C1971.52 239.243 1966.91 240.273 1961.71 241.168C1956.52 241.974 1951.46 242.735 1946.54 243.451C1941.61 244.078 1937.5 244.615 1934.18 245.063C1926.39 246.048 1919.28 247.704 1912.83 250.032C1906.47 252.36 1901.37 255.717 1897.52 260.104C1893.76 264.402 1891.88 270.132 1891.88 277.294C1891.88 287.232 1895.55 294.753 1902.89 299.857C1910.23 304.87 1919.59 307.377 1930.96 307.377Z" fill="black"/>
<path d="M2066.17 335.043V128.761H2104.98V161.529H2107.13C2110.89 150.427 2117.51 141.698 2127 135.341C2136.58 128.895 2147.42 125.672 2159.5 125.672C2162.01 125.672 2164.97 125.761 2168.37 125.94C2171.86 126.119 2174.59 126.343 2176.56 126.612V165.021C2174.95 164.574 2172.08 164.081 2167.96 163.544C2163.85 162.917 2159.73 162.604 2155.61 162.604C2146.12 162.604 2137.66 164.618 2130.23 168.647C2122.89 172.587 2117.07 178.093 2112.77 185.166C2108.47 192.149 2106.32 200.118 2106.32 209.071V335.043H2066.17Z" fill="black"/>
<path d="M2269.8 339.072C2253.15 339.072 2238.28 334.819 2225.21 326.313C2212.23 317.718 2202.02 305.497 2194.59 289.65C2187.25 273.713 2183.58 254.598 2183.58 232.305C2183.58 210.011 2187.3 190.941 2194.73 175.094C2202.25 159.246 2212.54 147.115 2225.62 138.699C2238.69 130.283 2253.5 126.075 2270.07 126.075C2282.87 126.075 2293.17 128.223 2300.96 132.521C2308.84 136.729 2314.92 141.653 2319.22 147.294C2323.61 152.934 2327.01 157.903 2329.43 162.201H2331.84V60H2372V335.043H2332.78V302.945H2329.43C2327.01 307.332 2323.52 312.346 2318.95 317.987C2314.48 323.627 2308.3 328.552 2300.42 332.76C2292.54 336.968 2282.33 339.072 2269.8 339.072ZM2278.66 304.826C2290.21 304.826 2299.97 301.781 2307.94 295.693C2316 289.516 2322.09 280.965 2326.2 270.042C2330.41 259.119 2332.52 246.406 2332.52 231.902C2332.52 217.577 2330.46 205.042 2326.34 194.298C2322.22 183.554 2316.18 175.183 2308.21 169.184C2300.24 163.186 2290.39 160.186 2278.66 160.186C2266.58 160.186 2256.5 163.32 2248.45 169.587C2240.39 175.855 2234.3 184.405 2230.18 195.238C2226.15 206.072 2224.14 218.293 2224.14 231.902C2224.14 245.69 2226.2 258.09 2230.32 269.102C2234.43 280.115 2240.52 288.844 2248.58 295.29C2256.73 301.647 2266.75 304.826 2278.66 304.826Z" fill="black"/>
</svg>
