<svg width="400" height="400" viewBox="0 0 400 400" fill="none" xmlns="http://www.w3.org/2000/svg">
<path fill-rule="evenodd" clip-rule="evenodd" d="M294.422 0.0078287L294.468 0.00836861C352.88 0.748524 400 48.3262 400 106.911V293.131L399.992 294.422L399.992 294.468C399.252 352.88 351.674 400 293.089 400H106.911C47.8656 400 0 352.134 0 293.089V106.911C0 47.8656 47.8656 0 106.911 0H293.131L294.422 0.0078287Z" fill="#010101"/>
<path d="M240.714 61.6725C236.254 57.2126 228.917 57.2126 224.457 61.6725L200 86.0578L175.615 61.6725C171.155 57.2126 163.818 57.2126 159.358 61.6725C154.898 66.1323 154.898 73.4695 159.358 77.9294L183.743 102.315L151.157 134.9L110.443 94.1863C105.983 89.7264 98.6461 89.7264 94.1863 94.1863C89.7264 98.6461 89.7264 105.983 94.1863 110.443L134.9 151.157L102.315 183.743L77.9294 159.358C73.4695 154.898 66.1323 154.898 61.6725 159.358C57.2126 163.818 57.2126 171.155 61.6725 175.615L86.0578 200L61.6725 224.385C57.2126 228.845 57.2126 236.182 61.6725 240.642C66.1323 245.102 73.4695 245.102 77.9294 240.642L102.315 216.257L134.9 248.843L94.1863 289.557C89.7264 294.017 89.7264 301.354 94.1863 305.814C98.6461 310.274 105.983 310.274 110.443 305.814L151.157 265.1L183.743 297.685L159.358 322.071C154.898 326.531 154.898 333.868 159.358 338.328C163.818 342.787 171.155 342.787 175.615 338.328L200 313.942L224.385 338.328C228.845 342.787 236.182 342.787 240.642 338.328C245.102 333.868 245.102 326.531 240.642 322.071L216.257 297.685L248.843 265.1L289.557 305.814C294.017 310.274 301.354 310.274 305.814 305.814C310.274 301.354 310.274 294.017 305.814 289.557L265.1 248.843L297.685 216.257L322.071 240.642C326.531 245.102 333.868 245.102 338.328 240.642C342.787 236.182 342.787 228.845 338.328 224.385L313.942 200L338.328 175.615C342.787 171.155 342.787 163.818 338.328 159.358C333.868 154.898 326.531 154.898 322.071 159.358L297.685 183.743L265.1 151.157L305.814 110.443C310.274 105.983 310.274 98.6461 305.814 94.1863C301.354 89.7264 294.017 89.7264 289.557 94.1863L248.843 134.9L216.257 102.315L240.642 77.9294C245.102 73.4695 245.102 66.1323 240.642 61.6725H240.714ZM118.644 200L151.229 167.414L183.815 200L151.229 232.586L118.644 200ZM167.486 248.843L200.072 216.257L232.658 248.843L200.072 281.428L167.486 248.843ZM216.257 200L248.843 167.414L281.428 200L248.843 232.586L216.257 200ZM232.514 151.157L199.928 183.743L167.342 151.157L199.928 118.572L232.514 151.157Z" fill="white"/>
</svg>
